<?xml version="1.0" standalone="no"?>
<!DOCTYPE svg PUBLIC "-//W3C//DTD SVG 20010904//EN"
 "http://www.w3.org/TR/2001/REC-SVG-20010904/DTD/svg10.dtd">
<svg version="1.0" xmlns="http://www.w3.org/2000/svg"
 width="725.000000pt" height="363.000000pt" viewBox="0 0 725.000000 363.000000"
 preserveAspectRatio="xMidYMid meet">

<g transform="translate(0.000000,363.000000) scale(0.100000,-0.100000)"
fill="#000000" stroke="none">
<path d="M3323 2306 c-136 -44 -249 -171 -282 -317 -25 -107 -8 -247 41 -344
34 -66 122 -149 191 -181 53 -25 75 -29 147 -29 72 0 94 4 147 29 139 64 250
240 241 383 l-3 48 -199 3 c-112 1 -204 -2 -209 -7 -5 -5 -6 -18 -2 -30 6 -20
12 -21 182 -21 l175 0 -7 -47 c-16 -114 -89 -214 -193 -265 -55 -27 -78 -33
-132 -32 -160 1 -292 127 -323 308 -30 175 63 362 211 429 69 31 170 29 242
-4 65 -30 125 -80 146 -120 15 -30 29 -35 53 -20 41 26 -47 134 -153 187 -61
30 -87 36 -152 40 -51 2 -94 -1 -121 -10z"/>
<path d="M4007 2054 c-4 -4 -7 -144 -7 -311 0 -262 2 -304 15 -309 38 -15 43
10 47 209 3 164 6 197 22 227 39 74 84 106 176 125 49 10 55 14 55 35 0 24 -3
25 -55 24 -62 -1 -131 -28 -172 -67 l-27 -25 -3 46 c-2 38 -7 48 -23 50 -12 2
-24 0 -28 -4z"/>
<path d="M4589 2047 c-87 -33 -133 -74 -176 -157 -24 -48 -28 -66 -28 -145 1
-79 4 -97 30 -148 31 -63 72 -104 138 -139 33 -18 59 -23 123 -23 70 0 88 4
139 30 64 33 119 92 110 117 -13 32 -35 28 -81 -17 -76 -75 -181 -93 -272 -46
-48 25 -76 55 -101 111 -39 85 -53 80 223 80 280 0 273 -2 262 81 -20 147
-131 257 -270 265 -36 3 -75 -1 -97 -9z m179 -76 c61 -32 109 -93 126 -163 l6
-28 -225 0 c-254 0 -243 -5 -204 80 55 123 182 170 297 111z"/>
<path d="M5137 2054 c-4 -4 -7 -144 -7 -311 0 -262 2 -304 15 -309 38 -15 44
10 47 219 3 182 5 206 24 242 68 130 237 134 312 7 27 -46 27 -49 30 -249 4
-209 8 -231 46 -217 14 5 16 30 16 203 0 212 -5 246 -49 311 -77 114 -217 142
-331 65 l-49 -33 -3 37 c-2 27 -8 37 -23 39 -12 2 -24 0 -28 -4z"/>
<path d="M5837 2054 c-4 -4 -7 -144 -7 -311 0 -262 2 -304 15 -309 38 -15 44
10 47 219 3 182 5 206 24 242 68 130 237 134 312 7 27 -46 27 -49 30 -249 4
-209 8 -231 46 -217 14 5 16 30 16 203 0 212 -5 246 -49 311 -77 114 -217 142
-331 65 l-49 -33 -3 37 c-2 27 -8 37 -23 39 -12 2 -24 0 -28 -4z"/>
<path d="M6460 2045 c-9 -11 9 -69 99 -300 l111 -287 -31 -73 c-36 -87 -80
-132 -139 -141 -75 -12 -58 -70 18 -61 90 10 140 74 220 279 187 481 217 568
201 584 -9 8 -22 12 -30 9 -8 -3 -57 -116 -108 -251 -52 -135 -97 -241 -101
-237 -4 4 -47 109 -95 233 -47 123 -91 232 -96 242 -12 22 -32 23 -49 3z"/>
</g>
</svg>
